#N canvas 757 381 764 569 12;
#X obj 24 203 netsend;
#X floatatom 24 24 5 0 0 0 - - -;
#X obj 253 24 bng 15 250 50 0 empty empty empty 17 7 0 10 -262144 -1
-1;
#X floatatom 253 131 5 0 0 0 - - -;
#X obj 254 77 bng 15 250 50 0 empty empty empty 17 7 0 10 -262144 -1
-1;
#X obj 254 97 list prepend pgm_save;
#X obj 253 155 list prepend pgm_gain;
#X obj 253 184 tgl 15 0 empty empty empty 17 7 0 10 -262144 -1 -1 0
1;
#X obj 253 204 list prepend dsp;
#X obj 24 49 list prepend pgm_change;
#X obj 253 44 list prepend pgm_load;
#X msg 217 394 send hoho;
#X msg 40 99 connect pisound1 3006;
#X connect 1 0 9 0;
#X connect 2 0 10 0;
#X connect 3 0 6 0;
#X connect 4 0 5 0;
#X connect 5 0 0 0;
#X connect 6 0 0 0;
#X connect 7 0 8 0;
#X connect 8 0 0 0;
#X connect 9 0 0 0;
#X connect 10 0 0 0;
#X connect 11 0 0 0;
#X connect 12 0 0 0;
