#N canvas 230 311 450 300 12;
#X obj 130 130 route pgm_change pgm_load;
#X obj 130 108 netsend;
#X msg 130 86 connect pisound1 3000;
#X floatatom 114 167 5 0 0 0 - - -;
#X obj 130 203 list prepend pgm_change;
#X obj 130 228 list trim;
#X obj 130 253 print;
#X connect 1 0 0 0;
#X connect 2 0 1 0;
#X connect 3 0 4 0;
#X connect 4 0 5 0;
#X connect 5 0 6 0;
