#N canvas 432 176 786 698 10;
#X obj 100 100 cnv 15 200 90 empty empty \$1 5 12 1 16 -258113 -262144
0;
#X obj 105 125 cnv 15 190 60 empty empty patchControl 5 10 1 10 -162280
-262144 0;
#X obj 157 145 bng 15 250 50 0 load_pre_all load_pre_set_all load_all
17 7 1 10 -99865 -262144 -262144;
#X obj 109 145 nbx 3 15 1 127 0 1 preset_all preset_set_all empty 0
-8 1 10 -99865 -262144 -262144 2 256;
#X obj 227 145 bng 15 250 50 0 save_pre_all save_pre_set_all save_all
17 7 1 10 -99865 -262144 -262144;
#X obj 256 105 tgl 15 0 dsp_control dsp_control_set DSP 17 8 1 10 -262144
-1 -1 1 1;
#X obj 107 193 r~ out_DAC_L;
#X obj 151 213 r~ out_DAC_R;
#N canvas 5 82 450 300 paths 0;
#X obj 17 17 loadbang;
#X obj 17 38 del 30;
#X obj 17 190 del 30;
#X obj 51 107 list fromsymbol;
#X obj 51 85 symbol ../patches/\$1/presets/;
#X obj 246 98 list fromsymbol;
#X obj 51 129 s patch_path_presets;
#X obj 246 76 symbol ../patches/\$1/sequences/;
#X obj 17 59 t b b b b;
#X obj 246 120 s patch_path_sequences;
#X msg 17 212 \; load_pre_set_all 1;
#X msg 34 155 \; preset_set all 1;
#X connect 0 0 1 0;
#X connect 1 0 8 0;
#X connect 2 0 10 0;
#X connect 3 0 6 0;
#X connect 4 0 3 0;
#X connect 5 0 9 0;
#X connect 7 0 5 0;
#X connect 8 0 2 0;
#X connect 8 1 11 0;
#X connect 8 2 4 0;
#X connect 8 3 7 0;
#X restore 306 19 pd paths;
#X obj 164 337 line~;
#X obj 258 286 s load_all;
#X obj 211 286 del 10;
#X obj 107 367 *~;
#X obj 150 367 *~;
#X obj 211 244 r load_pre_all;
#X obj 211 265 del 100;
#X msg 164 306 0 50;
#X msg 211 306 1 50;
#X obj 201 378 hsl 128 15 0 127 0 0 empty gain_\$1 gain -2 -8 0 10
-262144 -1 -1 3200 1;
#X msg 198 419 \$1 100;
#X obj 198 440 line~;
#X obj 107 457 *~;
#X obj 151 457 *~;
#X obj 109 58 loadbang;
#X msg 109 79 32;
#X obj 112 165 hsl 128 15 0 127 0 0 gain_\$1 gain_set_\$1 gain 132
8 1 10 -99865 -262144 -262144 3200 1;
#X obj 198 398 expr $f1/16 +1;
#X obj 341 288 del 10;
#X obj 341 267 del 100;
#X obj 341 246 r save_pre_all;
#X obj 388 288 s save_all;
#X obj 107 496 dac~ 1 2;
#X obj 361 421 netreceive;
#X obj 361 468 s preset_set_all;
#X obj 416 512 s load_pre_set_all;
#X obj 361 489 print pgm_ch;
#X obj 361 377 loadbang;
#X text 50 20 Set the paths to your preset folders here:;
#X obj 472 466 s dsp_control_set;
#X obj 472 487 print dsp;
#X obj 528 512 s gain_set_\$1;
#X obj 528 533 print pgm_gain;
#X obj 584 467 s save_pre_set_all;
#X obj 416 533 print pgm_load;
#X obj 584 488 print pgm_save;
#X obj 361 443 route pgm_change pgm_load dsp pgm_gain pgm_save;
#X obj 304 119 r dsp_control;
#X msg 304 143 \; pd dsp \$1;
#X obj 591 12 HLG_netReceive \$1;
#X obj 571 36 HLG_parameter \$1 1_\$1 mute 4;
#X msg 192 79 1;
#X msg 361 399 listen 3005 pictrl1;
#X connect 6 0 12 0;
#X connect 7 0 13 0;
#X connect 9 0 12 1;
#X connect 9 0 13 1;
#X connect 11 0 17 0;
#X connect 12 0 21 0;
#X connect 13 0 22 0;
#X connect 14 0 16 0;
#X connect 14 0 15 0;
#X connect 15 0 10 0;
#X connect 15 0 11 0;
#X connect 16 0 9 0;
#X connect 17 0 9 0;
#X connect 18 0 26 0;
#X connect 19 0 20 0;
#X connect 20 0 21 1;
#X connect 20 0 22 1;
#X connect 21 0 31 0;
#X connect 22 0 31 1;
#X connect 23 0 24 0;
#X connect 23 0 50 0;
#X connect 24 0 25 0;
#X connect 26 0 19 0;
#X connect 27 0 17 0;
#X connect 28 0 27 0;
#X connect 28 0 30 0;
#X connect 29 0 28 0;
#X connect 29 0 16 0;
#X connect 32 0 45 0;
#X connect 36 0 51 0;
#X connect 45 0 33 0;
#X connect 45 0 35 0;
#X connect 45 1 34 0;
#X connect 45 1 43 0;
#X connect 45 2 38 0;
#X connect 45 2 39 0;
#X connect 45 3 40 0;
#X connect 45 3 41 0;
#X connect 45 4 42 0;
#X connect 45 4 44 0;
#X connect 46 0 47 0;
#X connect 50 0 5 0;
#X connect 51 0 32 0;
#X coords 0 -1 1 1 200 90 1 100 100;
