#N canvas 497 121 786 698 10;
#X obj 100 100 cnv 15 200 90 empty empty \$1 5 12 1 16 -258113 -262144
0;
#X obj 105 125 cnv 15 190 60 empty empty patchControl 5 10 1 10 -162280
-262144 0;
#X obj 157 145 bng 15 250 50 0 load_pre_all load_pre_set_all load_all
17 7 1 10 -99865 -262144 -262144;
#X obj 109 145 nbx 3 15 1 127 0 1 preset_all preset_set_all empty 0
-8 1 10 -99865 -262144 -262144 1 256;
#X obj 227 145 bng 15 250 50 0 save_pre_all save_pre_set_all save_all
17 7 1 10 -99865 -262144 -262144;
#X obj 308 132 tgl 15 0 empty dsp_control empty 17 7 0 10 -262144 -1
-1 1 1;
#X msg 308 152 \; pd dsp \$1;
#X obj 256 105 tgl 15 0 dsp_control empty DSP 17 8 1 10 -262144 -1
-1 1 1;
#X obj 107 193 r~ out_DAC_L;
#X obj 148 213 r~ out_DAC_R;
#N canvas 0 22 450 300 paths 0;
#X obj 17 17 loadbang;
#X obj 17 38 del 30;
#X obj 17 190 del 30;
#X obj 51 107 list fromsymbol;
#X obj 51 85 symbol ../patches/\$1/presets/;
#X obj 246 95 list fromsymbol;
#X obj 51 129 s patch_path_presets;
#X obj 246 73 symbol ../patches/\$1/sequences/;
#X obj 17 59 t b b b b;
#X obj 246 117 s patch_path_sequences;
#X msg 17 212 \; load_pre_set_all 1;
#X msg 34 155 \; preset_set all 1;
#X connect 0 0 1 0;
#X connect 1 0 8 0;
#X connect 2 0 10 0;
#X connect 3 0 6 0;
#X connect 4 0 3 0;
#X connect 5 0 9 0;
#X connect 7 0 5 0;
#X connect 8 0 2 0;
#X connect 8 1 11 0;
#X connect 8 2 4 0;
#X connect 8 3 7 0;
#X restore 308 108 pd paths;
#X obj 163 337 line~;
#X obj 257 286 s load_all;
#X obj 210 286 del 10;
#X obj 107 367 *~;
#X obj 148 367 *~;
#X obj 210 244 r load_pre_all;
#X obj 210 265 del 100;
#X msg 163 306 0 50;
#X msg 210 306 1 50;
#X obj 200 381 hsl 128 15 0 127 0 0 empty gain_\$1 gain -2 -8 0 10
-262144 -1 -1 3200 1;
#X msg 197 422 \$1 100;
#X obj 197 443 line~;
#X obj 107 457 *~;
#X obj 148 457 *~;
#X obj 109 59 loadbang;
#X msg 109 80 32;
#X obj 112 165 hsl 128 15 0 127 0 0 gain_\$1 gain_set_\$1 gain 132
8 1 10 -99865 -262144 -262144 3200 1;
#X obj 197 401 expr $f1/16 +1;
#X obj 340 286 del 10;
#X obj 340 265 del 100;
#X obj 340 244 r save_pre_all;
#X obj 387 286 s save_all;
#X obj 107 496 dac~ 1 2;
#X connect 5 0 6 0;
#X connect 8 0 14 0;
#X connect 9 0 15 0;
#X connect 11 0 14 1;
#X connect 11 0 15 1;
#X connect 13 0 19 0;
#X connect 14 0 23 0;
#X connect 15 0 24 0;
#X connect 16 0 18 0;
#X connect 16 0 17 0;
#X connect 17 0 12 0;
#X connect 17 0 13 0;
#X connect 18 0 11 0;
#X connect 19 0 11 0;
#X connect 20 0 28 0;
#X connect 21 0 22 0;
#X connect 22 0 23 1;
#X connect 22 0 24 1;
#X connect 23 0 33 0;
#X connect 24 0 33 1;
#X connect 25 0 26 0;
#X connect 26 0 27 0;
#X connect 28 0 21 0;
#X connect 29 0 19 0;
#X connect 30 0 29 0;
#X connect 30 0 32 0;
#X connect 31 0 30 0;
#X connect 31 0 18 0;
#X coords 0 -1 1 1 200 90 1 100 100;
