#N canvas 861 188 569 670 10;
#X obj 0 0 cnv 15 50 195 empty bg_\$1_\$2 WC1 5 10 1 12 -208050 -262144
0;
#X obj 7 145 tgl 15 0 log_\$1_\$2 log_set_\$1_\$2 log 17 7 1 10 -262144
-1 -1 1 1;
#X obj 7 37 vsl 15 100 0 127 0 0 level_\$1_\$2 level_set_\$1_\$2 lvl
0 -9 1 10 -262144 -1 -1 7200 1;
#X obj 7 175 tgl 15 0 mute_\$1_\$2 mute_set_\$1_\$2 on 17 7 1 10 -262144
-1 -1 1 1;
#X obj 27 52 vsl 15 85 0 127 0 0 pan_\$1_\$2 pan_set_\$1_\$2 pan 0
-24 1 10 -262144 -1 -1 900 1;
#X obj 7 160 tgl 15 0 invert_\$1_\$2 invert_set_\$1_\$2 inv 17 7 1
10 -262144 -1 -1 0 1;
#X obj 27 35 bng 15 250 50 0 center_\$1_\$2 center_set_\$1_\$2 empty
17 7 0 10 -262144 -1 -1;
#X obj 84 16 bng 15 250 50 0 empty center_\$1_\$2 C 17 7 0 10 -262144
-1 -1;
#X msg 84 36 63.5;
#X obj 85 286 list split 1;
#X obj 85 307 list prepend set;
#X obj 85 328 list trim;
#X obj 85 349 receive~;
#X obj 85 62 receive updated_\$2;
#X obj 85 103 float \$1;
#X obj 85 124 - 1;
#X obj 85 166 route bang;
#X obj 85 251 s bg_\$1_\$2;
#X obj 85 145 text get parameters_\$2;
#N canvas 683 301 757 550 strip 0;
#X obj 312 170 tgl 15 0 empty log_\$1_\$2 log 17 7 0 10 -262144 -1
-1 1 1;
#X obj 312 211 line~;
#X msg 312 190 \$1 100;
#X obj 169 43 vsl 15 100 0 127 0 0 empty level_\$1_\$2 level 0 -9 0
10 -262144 -1 -1 7200 1;
#X msg 169 190 \$1 100;
#X obj 169 211 line~;
#X obj 169 170 * 1;
#X obj 194 110 tgl 15 0 empty mute_\$1_\$2 mute 17 7 0 10 -262144 -1
-1 1 1;
#X obj 194 130 t b f;
#X obj 455 170 tgl 15 0 empty invert_\$1_\$2 inv 17 7 0 10 -262144
-1 -1 0 1;
#X obj 455 211 line~;
#X msg 455 190 \$1 100;
#X obj 26 235 expr~ $v1 * ($v3*pow($v2 / 127 \, 4) + abs($v3-1)*$v2/127)
* 2 * ($v4-0.5), f 72;
#X obj 26 148 inlet~;
#X obj 26 506 outlet~;
#X obj 76 506 outlet~;
#X obj 91 273 vsl 15 50 0 127 0 0 empty pan_\$1_\$2 pan 0 -9 0 10 -262144
-1 -1 525 1;
#X obj 91 381 + 0.75;
#X obj 91 452 cos~;
#X obj 41 452 cos~;
#X obj 91 361 / 508;
#X obj 26 473 *~;
#X obj 76 473 *~;
#X msg 91 403 \$1 100;
#X obj 91 424 line~;
#X msg 41 403 \$1 100;
#X obj 41 424 line~;
#X obj 289 368 tgl 15 0 empty empty empty 17 7 0 10 -262144 -1 -1 0
1;
#X obj 289 389 metro 10;
#X obj 289 410 snapshot~;
#X floatatom 289 431 5 0 0 0 - - -;
#X obj 369 367 tgl 15 0 empty empty empty 17 7 0 10 -262144 -1 -1 0
1;
#X obj 369 388 metro 10;
#X obj 369 409 snapshot~;
#X floatatom 369 430 5 0 0 0 - - -;
#X obj 439 367 tgl 15 0 empty empty empty 17 7 0 10 -262144 -1 -1 0
1;
#X obj 439 388 metro 10;
#X obj 439 409 snapshot~;
#X floatatom 439 430 5 0 0 0 - - -;
#X obj 91 331 expr abs($f1-127);
#X connect 0 0 2 0;
#X connect 1 0 12 2;
#X connect 2 0 1 0;
#X connect 3 0 6 0;
#X connect 4 0 5 0;
#X connect 5 0 12 1;
#X connect 6 0 4 0;
#X connect 7 0 8 0;
#X connect 8 0 6 0;
#X connect 8 1 6 1;
#X connect 9 0 11 0;
#X connect 10 0 12 3;
#X connect 11 0 10 0;
#X connect 12 0 22 0;
#X connect 12 0 21 0;
#X connect 12 0 33 0;
#X connect 13 0 12 0;
#X connect 13 0 29 0;
#X connect 16 0 39 0;
#X connect 17 0 23 0;
#X connect 18 0 22 1;
#X connect 19 0 21 1;
#X connect 20 0 17 0;
#X connect 20 0 25 0;
#X connect 21 0 14 0;
#X connect 21 0 37 0;
#X connect 22 0 15 0;
#X connect 23 0 24 0;
#X connect 24 0 18 0;
#X connect 25 0 26 0;
#X connect 25 0 19 0;
#X connect 26 0 19 0;
#X connect 27 0 28 0;
#X connect 28 0 29 0;
#X connect 29 0 30 0;
#X connect 31 0 32 0;
#X connect 32 0 33 0;
#X connect 33 0 34 0;
#X connect 35 0 36 0;
#X connect 36 0 37 0;
#X connect 37 0 38 0;
#X connect 39 0 20 0;
#X restore 85 370 pd strip;
#X obj 221 476 s bg_\$1_\$2;
#X obj 221 434 list prepend label;
#X obj 221 455 list trim;
#X msg 85 210 label off;
#X obj 85 413 s~ \$1_\$2_L_out;
#X obj 130 436 s~ \$1_\$2_R_out;
#X obj 85 83 del 5;
#X obj 114 2 loadbang;
#X obj 251 525 tgl 15 0 empty empty empty 17 7 0 10 -262144 -1 -1 0
1;
#X obj 251 546 metro 10;
#X obj 251 567 snapshot~;
#X floatatom 251 588 5 0 0 0 - - -;
#X text 15 371 in HERE >>>;
#X msg 31 210 0 100;
#X obj 31 231 line~;
#X connect 7 0 8 0;
#X connect 8 0 4 0;
#X connect 9 0 10 0;
#X connect 9 1 21 0;
#X connect 10 0 11 0;
#X connect 11 0 12 0;
#X connect 12 0 19 0;
#X connect 13 0 26 0;
#X connect 14 0 15 0;
#X connect 15 0 18 0;
#X connect 16 0 23 0;
#X connect 16 0 33 0;
#X connect 16 1 9 0;
#X connect 18 0 16 0;
#X connect 19 0 24 0;
#X connect 19 0 30 0;
#X connect 19 1 25 0;
#X connect 21 0 22 0;
#X connect 22 0 20 0;
#X connect 23 0 17 0;
#X connect 26 0 14 0;
#X connect 27 0 7 0;
#X connect 28 0 29 0;
#X connect 29 0 30 0;
#X connect 30 0 31 0;
#X connect 33 0 34 0;
#X coords 0 -1 1 1 50 195 2 0 0;
