#N canvas 725 475 792 599 10;
#X obj 238 119 list split 1;
#X text 126 55 updates gui values;
#X text 138 67 upon preset load;
#X text 150 79 or file update;
#X text 46 392 in current presest;
#X obj 397 290 list trim;
#X obj 305 179 < 1;
#X obj 272 244 spigot;
#X obj 397 244 spigot;
#X text 444 204 update is sent either to;
#X text 474 216 internal or net-gui;
#X text 450 228 if net-gui is connected;
#X text 459 395 send netParameter (from HLG_netReceive) into patch
;
#X obj 238 77 float \$5;
#X obj 238 56 r updated_\$2;
#X obj 238 98 text get parameters_\$2;
#X obj 430 161 value \$2_guiselect;
#X obj 397 267 list prepend send \$4_set_\$3;
#X obj 397 313 s \$2_netgui_return;
#X obj 272 267 s \$4_set_\$3;
#X obj 158 386 r save_value_\$2 \$5;
#X obj 221 409 r \$4_\$3;
#X obj 158 454 list prepend \$4_\$3;
#X text 46 381 saves current list;
#X obj 158 432 list append;
#X obj 158 515 text set parameters_\$2;
#X obj 546 425 r \$2_netParameters;
#X obj 505 493 print \$4_\$3_value;
#X obj 158 495 list split \$1;
#X obj 158 475 list append \$5;
#X obj 291 400 loadbang;
#X obj 291 423 float \$1;
#X obj 291 446 + 1;
#X obj 546 471 s \$4_\$3;
#X obj 546 448 route \$4_\$3;
#X obj 272 143 t l b, f 9;
#X connect 0 1 35 0;
#X connect 5 0 18 0;
#X connect 6 0 7 1;
#X connect 7 0 19 0;
#X connect 8 0 17 0;
#X connect 13 0 15 0;
#X connect 14 0 13 0;
#X connect 15 0 0 0;
#X connect 16 0 6 0;
#X connect 16 0 8 1;
#X connect 17 0 5 0;
#X connect 20 0 24 0;
#X connect 21 0 24 1;
#X connect 22 0 29 0;
#X connect 24 0 22 0;
#X connect 26 0 34 0;
#X connect 28 0 25 0;
#X connect 28 1 25 1;
#X connect 29 0 28 0;
#X connect 30 0 31 0;
#X connect 31 0 32 0;
#X connect 32 0 28 1;
#X connect 34 0 27 0;
#X connect 34 0 33 0;
#X connect 35 0 8 0;
#X connect 35 0 7 0;
#X connect 35 1 16 0;
