#N canvas 105 256 718 369 12;
#X obj 242 126 print hello;
#X msg 242 86 Did you set the desired address and port with -send "send
<address> <port> <message>" on start-up?;
#X obj 57 156 netsend;
#X msg 74 212 on port \$1;
#X obj 34 261 list append;
#X obj 34 286 list prepend;
#X obj 34 311 print netsend;
#X obj 34 15 r send;
#X msg 127 126 connect \$1 \$2;
#X obj 34 40 list;
#X obj 34 66 t l b;
#X obj 34 187 unpack s f s;
#X msg 57 126 send \$3;
#X obj 34 96 t l l l;
#X obj 85 15 inlet;
#X msg 404 222 pisound1 3005 pgm_load;
#X msg 34 236 sent to \$1;
#X connect 1 0 0 0;
#X connect 3 0 4 1;
#X connect 4 0 5 0;
#X connect 5 0 6 0;
#X connect 7 0 9 0;
#X connect 8 0 2 0;
#X connect 9 0 10 0;
#X connect 10 0 13 0;
#X connect 10 1 1 0;
#X connect 11 0 16 0;
#X connect 11 1 3 0;
#X connect 11 2 5 1;
#X connect 12 0 2 0;
#X connect 13 0 11 0;
#X connect 13 1 12 0;
#X connect 13 2 8 0;
#X connect 14 0 9 0;
#X connect 15 0 9 0;
#X connect 16 0 4 0;
