#N canvas 274 62 483 667 10;
#X obj 19 253 route bang;
#X obj 19 486 list prepend;
#X obj 88 439 sel 0;
#X msg 88 460 off;
#X msg 118 460 on;
#X obj 19 507 list trim;
#X obj 46 329 random 100;
#X floatatom 132 308 5 0 100 1 chance_#1_#2 chance_#1_#2 -;
#X obj 46 380 < 0;
#X obj 46 406 tgl 15 0 empty empty empty 17 7 0 10 -262144 -1 -1 1
1;
#X obj 76 274 t f b;
#X obj 19 274 t b b;
#X obj 88 419 *;
#X obj 103 399 tgl 15 0 empty mute_\$1_\$2 mute_\$1_\$2 17 7 0 10 -262144
-1 -1 1 1;
#X obj 132 346 expr abs($f1-100*$f2), f 26;
#X obj 258 307 tgl 15 0 empty invert_chance_\$1_\$2 invert_chance_\$1_\$2
17 7 0 10 -262144 -1 -1 0 1;
#X floatatom 132 367 5 0 0 0 - - -;
#X obj 258 325 t b f;
#X obj 19 528 route on;
#X obj 0 0 cnv 15 200 25 empty bg_\$1_\$2 sneir 5 13 1 12 -237180 -166441
0;
#N canvas 0 23 249 376 initialize 0;
#X obj 66 34 loadbang;
#X msg 66 55 1;
#X msg 66 97 100;
#X text 33 258 lightgray;
#X text 36 237 gray;
#X obj 66 196 mod 2;
#X obj 66 175 float \$1;
#X obj 66 154 loadbang;
#X obj 66 214 sel 0;
#X obj 66 284 list prepend color;
#X obj 66 302 list trim;
#X obj 66 321 send bg_\$1_\$2;
#X msg 93 257 -1.51324e+07 0 1;
#X msg 66 236 -1.31586e+07 0 0;
#X obj 67 76 send mute_set_\$1_\$2;
#X obj 66 118 send chance_set_\$1_\$2;
#X connect 0 0 1 0;
#X connect 0 0 2 0;
#X connect 1 0 14 0;
#X connect 2 0 15 0;
#X connect 5 0 8 0;
#X connect 6 0 5 0;
#X connect 7 0 6 0;
#X connect 8 0 13 0;
#X connect 8 1 12 0;
#X connect 9 0 10 0;
#X connect 10 0 11 0;
#X connect 12 0 9 0;
#X connect 13 0 9 0;
#X restore 209 8 pd initialize;
#X obj 8 209 list split 1;
#X obj 19 549 send;
#X obj 8 57 float \$1;
#X obj 8 230 oreceive;
#X obj 8 36 receive updated_\$2;
#X obj 8 78 - 1;
#X obj 50 5 tgl 15 0 mute_\$1_\$2 mute_set_\$1_\$2 on 17 8 1 10 -203904
-1 -1 1 1;
#X obj 132 5 tgl 15 0 invert_chance_\$1_\$2 invert_chance_set_\$1_\$2
inv 17 8 1 10 -203904 -1 -1 0 1;
#X obj 100 535 list split 1;
#X obj 134 556 route bang;
#X obj 134 619 s bg_\$1_\$2;
#X msg 134 598 label -;
#X obj 191 577 list prepend label;
#X obj 191 598 list trim;
#X obj 8 119 route bang;
#X obj 8 162 s bg_\$1_\$2;
#X msg 8 141 label -;
#X obj 8 98 text get parameters_\$2;
#X obj 83 5 nbx 3 15 0 100 0 0 chance_\$1_\$2 chance_set_\$1_\$2 %
35 8 1 10 -262144 -1 -1 100 256;
#X connect 0 0 11 0;
#X connect 0 1 10 0;
#X connect 1 0 5 0;
#X connect 2 0 3 0;
#X connect 2 1 4 0;
#X connect 3 0 1 1;
#X connect 4 0 1 1;
#X connect 5 0 18 0;
#X connect 6 0 8 0;
#X connect 7 0 14 0;
#X connect 8 0 9 0;
#X connect 9 0 12 0;
#X connect 10 0 1 0;
#X connect 10 1 6 0;
#X connect 11 0 1 0;
#X connect 11 1 6 0;
#X connect 12 0 2 0;
#X connect 13 0 12 1;
#X connect 14 0 16 0;
#X connect 15 0 17 0;
#X connect 16 0 8 1;
#X connect 17 0 14 0;
#X connect 17 1 14 1;
#X connect 18 0 22 0;
#X connect 21 0 24 0;
#X connect 21 1 29 0;
#X connect 23 0 26 0;
#X connect 24 0 0 0;
#X connect 25 0 23 0;
#X connect 26 0 38 0;
#X connect 29 0 22 1;
#X connect 29 1 30 0;
#X connect 30 0 32 0;
#X connect 30 1 33 0;
#X connect 32 0 31 0;
#X connect 33 0 34 0;
#X connect 34 0 31 0;
#X connect 35 0 37 0;
#X connect 35 1 21 0;
#X connect 37 0 36 0;
#X connect 38 0 35 0;
#X coords 0 -1 1 1 200 25 1 0 0;
