#N canvas 511 225 718 323 12;
#X obj 245 105 print hello;
#X obj 37 45 t l l;
#X obj 37 115 t l l;
#X msg 245 65 Did you set the desired address and port with -send "send
<address> <port> <message>" on start-up?;
#X obj 178 135 unpack f s s;
#X obj 37 166 netsend;
#X msg 218 160 on port \$1;
#X msg 178 184 sent to address \$1;
#X obj 178 209 list append;
#X obj 178 234 list prepend;
#X obj 178 259 print netsend;
#X obj 37 21 r send;
#X msg 37 141 connect \$1 \$2;
#X connect 1 0 2 0;
#X connect 1 1 3 0;
#X connect 2 0 12 0;
#X connect 2 1 4 0;
#X connect 3 0 0 0;
#X connect 4 0 7 0;
#X connect 4 1 6 0;
#X connect 4 2 9 1;
#X connect 6 0 8 1;
#X connect 7 0 8 0;
#X connect 8 0 9 0;
#X connect 9 0 10 0;
#X connect 11 0 1 0;
#X connect 12 0 5 0;
