#N canvas 176 215 632 762 12;
#X obj 128 184 netreceive;
#X symbolatom 128 116 10 0 0 0 gui-client - -;
#X floatatom 306 119 6 1 10000 0 port - -;
#X msg 128 161 listen \$2 \$1;
#X obj 128 37 loadbang;
#X obj 128 60 t b b;
#X text 5 161 listens for input;
#X obj 128 138 pack s f;
#X msg 128 84 set pictrl1 \, bang;
#X obj 229 164 r \$1_netgui_return;
#X text 40 173 from net-gui;
#X text 26 79 net-gui setup;
#X msg 306 80 3005;
#X obj 196 404 list;
#X obj 196 381 sel 1;
#X msg 221 346 detected HLG_netGUI from \$1 on port \$2;
#X obj 274 401 list;
#X obj 196 427 list trim;
#X obj 274 427 list trim;
#X obj 128 525 s \$1_netParameters;
#X obj 196 452 print \$1_guiStatus;
#X msg 299 373 no HLG_netGUI detected;
#X connect 0 0 19 0;
#X connect 0 1 14 0;
#X connect 1 0 7 0;
#X connect 2 0 7 1;
#X connect 3 0 0 0;
#X connect 4 0 5 0;
#X connect 5 0 8 0;
#X connect 5 1 12 0;
#X connect 7 0 3 0;
#X connect 7 0 15 0;
#X connect 7 0 21 0;
#X connect 8 0 1 0;
#X connect 9 0 0 0;
#X connect 12 0 2 0;
#X connect 13 0 17 0;
#X connect 14 0 13 0;
#X connect 14 1 16 0;
#X connect 15 0 13 1;
#X connect 16 0 18 0;
#X connect 17 0 20 0;
#X connect 18 0 20 0;
#X connect 21 0 16 1;
