#N canvas 273 343 576 514 10;
#X obj 0 0 cnv 15 200 55 empty empty empty 12 12 1 14 -257985 -66577
0;
#X obj 0 55 HLG_sigStrip 1 \$1;
#X obj 50 55 HLG_sigStrip 2 \$1;
#X obj 100 55 HLG_sigStrip 3 \$1;
#X obj 150 55 HLG_sigStrip 4 \$1;
#N canvas 0 22 517 229 mixer 0;
#X obj 15 36 r~ 1_\$1_L_out;
#X obj 106 36 r~ 2_\$1_L_out;
#X obj 15 57 +~;
#X obj 196 36 r~ 3_\$1_L_out;
#X obj 287 36 r~ 4_\$1_L_out;
#X obj 196 63 +~;
#X obj 15 77 +~;
#X obj 95 117 +~;
#X obj 276 123 +~;
#X obj 95 137 +~;
#X obj 95 96 r~ 1_\$1_R_out;
#X obj 186 96 r~ 2_\$1_R_out;
#X obj 276 96 r~ 3_\$1_R_out;
#X obj 367 96 r~ 4_\$1_R_out;
#X obj 15 174 s~ out_\$1_L;
#X obj 95 174 s~ out_\$1_R;
#X obj 389 128 tgl 15 0 empty empty empty 17 7 0 10 -262144 -1 -1 0
1;
#X obj 389 149 metro 10;
#X obj 389 170 snapshot~;
#X floatatom 389 191 5 0 0 0 - - -;
#X connect 0 0 2 0;
#X connect 1 0 2 1;
#X connect 2 0 6 0;
#X connect 3 0 5 0;
#X connect 4 0 5 1;
#X connect 5 0 6 1;
#X connect 6 0 14 0;
#X connect 6 0 18 0;
#X connect 7 0 9 0;
#X connect 8 0 9 1;
#X connect 9 0 15 0;
#X connect 10 0 7 0;
#X connect 11 0 7 1;
#X connect 12 0 8 0;
#X connect 13 0 8 1;
#X connect 16 0 17 0;
#X connect 17 0 18 0;
#X connect 18 0 19 0;
#X restore 7 283 pd mixer;
#X obj 215 59 HLG_parameter \$1 1_\$1 level 4;
#X obj 215 119 HLG_parameter \$1 4_\$1 level 7;
#X obj 215 99 HLG_parameter \$1 3_\$1 level 6;
#X obj 215 79 HLG_parameter \$1 2_\$1 level 5;
#X obj 215 139 HLG_parameter \$1 1_\$1 pan 8;
#X obj 215 159 HLG_parameter \$1 2_\$1 pan 9;
#X obj 215 179 HLG_parameter \$1 3_\$1 pan 10;
#X obj 215 199 HLG_parameter \$1 4_\$1 pan 11;
#X obj 215 219 HLG_parameter \$1 1_\$1 log 12;
#X obj 215 239 HLG_parameter \$1 2_\$1 log 13;
#X obj 215 259 HLG_parameter \$1 3_\$1 log 14;
#X obj 215 279 HLG_parameter \$1 4_\$1 log 15;
#X obj 215 299 HLG_parameter \$1 1_\$1 invert 16;
#X obj 215 319 HLG_parameter \$1 2_\$1 invert 17;
#X obj 215 339 HLG_parameter \$1 3_\$1 invert 18;
#X obj 215 359 HLG_parameter \$1 4_\$1 invert 19;
#X obj 215 379 HLG_parameter \$1 1_\$1 mute 20;
#X obj 215 399 HLG_parameter \$1 2_\$1 mute 21;
#X obj 215 419 HLG_parameter \$1 3_\$1 mute 22;
#X obj 215 439 HLG_parameter \$1 4_\$1 mute 23;
#X obj 0 250 cnv 15 100 15 empty empty out_\$1_L 5 8 1 10 -233017 -66577
0;
#X obj 100 250 cnv 15 100 15 empty empty out_\$1_R 10 8 1 10 -191407
-66577 0;
#X obj 5 5 HLG_presetControl \$1 sigMixer;
#X coords 0 -1 1 1 200 265 1 0 0;
