#N canvas 779 376 661 286 10;
#X obj 0 0 cnv 15 200 95 empty empty \$1 20 12 1 14 -35505 -262144
0;
#X obj 100 56 bng 15 250 50 0 seq_\$1 seq_set_\$1 sequence 17 7 1 10
-257985 -1 -262144;
#X obj 10 56 bng 15 250 50 0 clock_\$1 clock_set_\$1 clk 17 7 1 10
-4160 -262144 -262144;
#N canvas 42 107 506 428 wonkySequencer 0;
#X msg 21 326 click;
#X obj 71 346 text define -k seq_\$1;
#A set pitch_set_WV1 60 62 65 67 70 72 \; offset_set_1_WS1 0 12 \;
pitch_set_WV2 60 65 75 70 \; offset_set_3_WS1 0 24 \;;
#X obj 21 306 bng 15 250 50 0 empty seq_\$1 seq 17 7 0 10 -257985 -1
-1;
#X obj 71 304 list prepend write;
#X obj 71 325 list trim;
#X msg 52 66 read;
#X msg 101 66 write;
#X obj 101 45 bng 15 250 50 0 empty save_\$1 save 17 7 0 10 -262144
-1 -1;
#X obj 52 87 t b b a;
#X obj 194 372 s seq_updated_\$1;
#X obj 52 21 r load_seq_\$1;
#X obj 71 153 list fromsymbol;
#X obj 71 282 list tosymbol;
#X floatatom 305 207 5 0 0 0 preset_number preset_#1 -;
#X obj 305 248 list fromsymbol;
#X obj 71 262 list append;
#X msg 305 227 symbol \$1.txt;
#X obj 71 131 symbol, f 43;
#X obj 326 100 list tosymbol;
#X obj 71 242 list append;
#X obj 71 174 t a b;
#X obj 98 222 list fromsymbol;
#X obj 326 79 r patch_path_sequences;
#X obj 98 201 symbol \$1_sequence_;
#X connect 0 0 1 0;
#X connect 1 1 9 0;
#X connect 2 0 0 0;
#X connect 3 0 4 0;
#X connect 4 0 1 0;
#X connect 5 0 8 0;
#X connect 6 0 8 0;
#X connect 7 0 6 0;
#X connect 8 1 17 0;
#X connect 8 2 3 1;
#X connect 10 0 5 0;
#X connect 11 0 20 0;
#X connect 12 0 3 0;
#X connect 13 0 16 0;
#X connect 14 0 15 1;
#X connect 15 0 12 0;
#X connect 16 0 14 0;
#X connect 17 0 11 0;
#X connect 18 0 17 1;
#X connect 19 0 15 0;
#X connect 20 0 19 0;
#X connect 20 1 23 0;
#X connect 21 0 19 1;
#X connect 22 0 18 0;
#X connect 23 0 21 0;
#X restore 210 8 pd wonkySequencer;
#X obj 210 29 HLG_parameter \$1 1_\$1 dir 0;
#X obj 210 110 HLG_parameter \$1 1_\$1 line 4;
#X obj 210 49 HLG_parameter \$1 2_\$1 dir 1;
#X obj 210 69 HLG_parameter \$1 3_\$1 dir 2;
#X obj 210 130 HLG_parameter \$1 2_\$1 line 5;
#X obj 210 150 HLG_parameter \$1 3_\$1 line 6;
#X obj 210 170 HLG_parameter \$1 4_\$1 line 7;
#X obj 50 56 bng 15 250 50 0 reset_\$1 reset_set_\$1 rst 17 7 1 10
-258113 -262144 -262144;
#X obj 0 154 HLG_seqCore 3 \$1;
#X obj 210 89 HLG_parameter \$1 4_\$1 dir 3;
#X obj 0 195 HLG_seqCore 4 \$1;
#X obj 5 5 HLG_presetControl \$1 wonkySeq;
#X obj 0 74 HLG_seqCore 1 \$1;
#X obj 0 114 HLG_seqCore 2 \$1;
#X obj 400 29 HLG_parameter \$1 1_\$1 send 8;
#X obj 400 49 HLG_parameter \$1 2_\$1 send 9;
#X obj 400 69 HLG_parameter \$1 3_\$1 send 10;
#X obj 400 89 HLG_parameter \$1 4_\$1 send 11;
#X obj 400 110 HLG_parameter \$1 1_\$1 offset 12;
#X obj 400 130 HLG_parameter \$1 2_\$1 offset 13;
#X obj 400 150 HLG_parameter \$1 3_\$1 offset 14;
#X obj 400 170 HLG_parameter \$1 4_\$1 offset 15;
#X coords 0 -1 1 1 200 235 1 0 0;
