#N canvas 176 215 632 493 12;
#X obj 167 186 netreceive;
#X symbolatom 167 118 10 0 0 0 gui-client - -;
#X floatatom 345 121 6 1 10000 0 port - -;
#X msg 167 163 listen \$2 \$1;
#X obj 167 39 loadbang;
#X obj 167 62 t b b;
#X text 44 163 listens for input;
#X obj 167 140 pack s f;
#X msg 167 86 set pictrl1 \, bang;
#X obj 268 166 r \$1_netgui_return;
#X text 79 175 from net-gui;
#X text 65 81 net-gui setup;
#X msg 345 82 3005;
#X obj 234 333 list;
#X obj 234 310 sel 1;
#X msg 259 275 detected HLG_netGUI from \$1 on port \$2;
#X obj 312 330 list;
#X obj 234 356 list trim;
#X obj 312 356 list trim;
#X obj 167 414 s \$1_netParameters;
#X obj 234 391 print \$1_guiStatus;
#X msg 337 302 no HLG_netGUI detected;
#X obj 302 216 tgl 15 0 empty empty empty 17 7 0 10 -262144 -1 -1 0
1;
#X text 333 218 GUI is connected;
#X text 321 206 ON if at least one;
#X obj 302 236 value \$1_guiselect;
#X connect 0 0 19 0;
#X connect 0 1 14 0;
#X connect 0 1 22 0;
#X connect 1 0 7 0;
#X connect 2 0 7 1;
#X connect 3 0 0 0;
#X connect 4 0 5 0;
#X connect 5 0 8 0;
#X connect 5 1 12 0;
#X connect 7 0 3 0;
#X connect 7 0 15 0;
#X connect 7 0 21 0;
#X connect 8 0 1 0;
#X connect 9 0 0 0;
#X connect 12 0 2 0;
#X connect 13 0 17 0;
#X connect 14 0 13 0;
#X connect 14 1 16 0;
#X connect 15 0 13 1;
#X connect 16 0 18 0;
#X connect 17 0 20 0;
#X connect 18 0 20 0;
#X connect 21 0 16 1;
#X connect 22 0 25 0;
