#N canvas 706 355 581 377 10;
#X obj 0 0 cnv 15 200 25 empty bg_\$1_\$2 - 5 13 1 12 -237180 -166441
0;
#X obj 155 94 list split 1;
#X obj 155 115 list prepend set;
#X obj 155 136 list trim;
#X obj 155 157 receive~;
#X obj 155 282 my-s~;
#X obj 61 5 tgl 15 0 mute_\$1_\$2 mute_set_\$1_\$2 on 17 7 0 10 -262130
-66577 -66577 1 1;
#X obj 157 5 tgl 15 0 invert_\$1_\$2 invert_set_\$1_\$2 inv 17 7 0
10 -262130 -66577 -66577 1 1;
#X obj 96 5 hsl 50 15 0 127 0 0 level_\$1_\$2 level_set_\$1_\$2 empty
-2 -8 0 10 -262130 -66577 -262144 1500 1;
#X obj 16 76 route bang;
#X obj 16 128 s bg_\$1_\$2;
#X msg 16 100 label -;
#X msg 73 100 label live;
#X obj 189 256 list split 1;
#X obj 223 322 s bg_\$1_\$2;
#X obj 223 278 list prepend label;
#X obj 223 299 list trim;
#X obj 341 212 tgl 15 0 empty invert_\$1_\$2 invert 17 7 0 10 -262144
-1 -1 1 1;
#X obj 434 212 tgl 15 0 empty mute_\$1_\$2 mute 17 7 0 10 -262144 -1
-1 1 1;
#X floatatom 248 170 5 0 0 1 level level_#1_#2 -;
#X obj 155 231 expr~ $v1*pow($v2 / 127 \, 4) * 2*($f3-0.5) * $f4;
#X msg 248 190 \$1 20;
#X obj 248 211 line~;
#X obj 16 51 r link_set_\$1_\$2;
#N canvas 5 109 320 422 initialize 0;
#X obj 65 8 loadbang;
#X msg 65 29 1;
#X msg 65 71 100;
#X text 33 278 lightgray;
#X text 36 257 gray;
#X obj 66 216 mod 2;
#X obj 66 195 float \$1;
#X obj 66 174 loadbang;
#X obj 66 234 sel 0;
#X obj 66 304 list prepend color;
#X obj 66 322 list trim;
#X obj 66 341 send bg_\$1_\$2;
#X msg 93 277 -1.51324e+07 0 1;
#X msg 66 256 -1.31586e+07 0 0;
#X obj 66 50 send mute_set_\$1_\$2;
#X obj 65 92 send level_set_\$1_\$2;
#X obj 65 135 send invert_set_\$1_\$2;
#X msg 65 114 0;
#X connect 0 0 1 0;
#X connect 0 0 2 0;
#X connect 0 0 17 0;
#X connect 1 0 14 0;
#X connect 2 0 15 0;
#X connect 5 0 8 0;
#X connect 6 0 5 0;
#X connect 7 0 6 0;
#X connect 8 0 13 0;
#X connect 8 1 12 0;
#X connect 9 0 10 0;
#X connect 10 0 11 0;
#X connect 12 0 9 0;
#X connect 13 0 9 0;
#X connect 17 0 16 0;
#X restore 209 8 pd initialize;
#X obj 334 69 print link_set_\$1_\$2;
#X connect 1 0 2 0;
#X connect 1 1 13 0;
#X connect 2 0 3 0;
#X connect 3 0 4 0;
#X connect 4 0 20 0;
#X connect 9 0 11 0;
#X connect 9 1 12 0;
#X connect 9 1 1 0;
#X connect 11 0 10 0;
#X connect 12 0 10 0;
#X connect 13 0 5 1;
#X connect 13 1 15 0;
#X connect 15 0 16 0;
#X connect 16 0 14 0;
#X connect 17 0 20 2;
#X connect 18 0 20 3;
#X connect 19 0 21 0;
#X connect 20 0 5 0;
#X connect 21 0 22 0;
#X connect 22 0 20 1;
#X connect 23 0 9 0;
#X connect 23 0 25 0;
#X coords 0 -1 1 1 200 25 1 0 0;
