#N canvas 970 389 789 438 12;
#X obj 237 120 print hello;
#X obj 29 22 r listen;
#X obj 29 46 t l l;
#X obj 29 192 netreceive;
#X obj 96 261 list append;
#X obj 96 236 list append connection(s) detected on port;
#X obj 96 286 print netreceive;
#X obj 29 141 t l l;
#X obj 170 161 unpack f s;
#X msg 29 167 listen \$1 \$2;
#X msg 237 66 Did you set the desired address and port with -send "listen
<port> <address>" on start-up? \, Listening for messages from \$2 on
port \$1 - anything connected?;
#X obj 29 310 print netreceive_msg;
#X connect 1 0 2 0;
#X connect 2 0 7 0;
#X connect 2 1 10 0;
#X connect 3 0 11 0;
#X connect 3 1 5 0;
#X connect 4 0 6 0;
#X connect 5 0 4 0;
#X connect 7 0 9 0;
#X connect 7 1 8 0;
#X connect 8 0 4 1;
#X connect 9 0 3 0;
#X connect 10 0 0 0;
