#N canvas 219 128 817 700 10;
#X obj 0 0 cnv 15 200 135 empty empty empty 20 12 0 14 -201947 -66577
0;
#X obj 10 85 nbx 3 15 0 127 0 0 attack_\$1 attack_set_\$1 attack 0
-8 1 10 -262144 -1 -1 29 256;
#X obj 47 85 nbx 3 15 0 127 0 0 base_decay_\$1 base_decay_set_\$1 b-dec'
0 -8 1 10 -262144 -1 -1 71 256;
#X obj 158 85 nbx 3 15 0 127 0 0 dist_\$1 dist_set_\$1 dist 0 -8 1
10 -262144 -1 -1 9 256;
#X obj 84 85 nbx 3 15 0 127 0 0 sweep_\$1 sweep_set_\$1 sweep 0 -8
1 10 -262144 -1 -1 41 256;
#X obj 121 85 nbx 3 15 0 127 0 0 base_\$1 base_set_\$1 base 0 -8 1
10 -262144 -1 -1 1 256;
#X obj 84 115 nbx 3 15 0 127 0 0 noise_decay_\$1 noise_decay_set_\$1
n-dec' 0 -8 1 10 -262144 -1 -1 3 256;
#X obj 5 5 HLG_presetControl \$1 wonkyPerc;
#X obj 121 115 nbx 3 15 0 127 0 0 noise_\$1 noise_set_\$1 noise 0 -8
1 10 -262144 -1 -1 17 256;
#X obj 158 115 nbx 3 15 0 127 0 0 hipass_\$1 hipass_set_\$1 hipass
0 -8 1 10 -262144 -1 -1 17 256;
#X obj 10 115 nbx 3 15 0 127 0 0 FM_freq_\$1 FM_freq_\$1 FMfreq 0 -8
1 10 -262144 -1 -1 0 256;
#X obj 47 115 nbx 3 15 0 127 0 0 FM_amount_\$1 FM_amount_\$1 FMamt
0 -8 1 10 -262144 -1 -1 0 256;
#X obj 10 55 bng 15 250 50 0 trigger_\$1 trigger_set_\$1 trigger 18
7 1 10 -262144 -1 -1;
#N canvas 0 22 592 638 wonkyPerc 0;
#X obj 41 208 line~;
#X floatatom 68 68 5 0 0 0 attack attack_#1 -;
#X floatatom 187 75 5 0 127 0 base_decay base_decay_#1 -;
#X obj 41 166 float;
#X obj 120 173 float;
#X obj 41 146 bng 15 250 50 0 empty empty empty 17 7 0 10 -262144 -1
-1;
#X obj 120 153 bng 15 250 50 0 empty empty empty 17 7 0 10 -262144
-1 -1;
#X obj 41 229 cos~;
#X obj 41 438 osc~;
#X msg 120 194 0.5 \$1;
#X msg 41 187 0 \$1;
#X obj 41 250 expr~ ($v1+1)/2;
#X obj 120 60 t b b;
#X obj 120 40 bng 15 250 50 0 empty trigger_\$1 trigger 17 7 0 10 -262144
-1 -1;
#X floatatom 108 360 5 0 0 0 sweep sweep_#1 -;
#X obj 120 131 del 10;
#X floatatom 176 381 5 0 0 0 base base_#1 -;
#X floatatom 111 451 5 0 0 0 dist dist_#1 -;
#X obj 41 579 *~;
#X floatatom 187 141 5 0 0 0 - - -;
#X obj 187 95 expr pow($f1/127 \, 4);
#X obj 187 115 * 2000;
#X obj 56 271 *~ 1;
#X obj 108 380 * 3;
#X obj 41 506 clip~ -1 1;
#X obj 41 486 *~;
#X obj 111 472 expr 1 + 2*pow($f1/128 \, 4);
#X obj 281 283 osc~ 400;
#X floatatom 281 222 5 0 0 0 FM_freq FM_freq_#1 -;
#X obj 281 263 * 5;
#X obj 281 242 + 0.01;
#X obj 41 407 expr~ ($v1 * $f2) + $f3;
#X obj 213 297 *~ 1;
#X floatatom 234 274 5 0 0 0 FM_amount FM_amount_#1 -;
#X obj 41 311 +~;
#X obj 68 87 expr $f1;
#X obj 355 243 noise~;
#X floatatom 518 298 5 0 0 0 noise noise_#1 -;
#X obj 143 555 hip~;
#X floatatom 164 513 5 0 0 0 hipass hipass_#1 -;
#X floatatom 425 85 5 0 127 0 noise_decay noise_decay_#1 -;
#X obj 398 145 float;
#X obj 380 145 bng 15 250 50 0 empty empty empty 17 7 0 10 -262144
-1 -1;
#X msg 398 180 0.5 \$1;
#X obj 425 105 expr pow($f1/127 \, 4);
#X obj 425 125 * 2000;
#X obj 398 201 line~;
#X obj 398 222 cos~;
#X obj 398 243 expr~ ($v1+1)/2;
#X obj 383 264 *~;
#X obj 41 600 s~ out_\$1;
#X obj 41 332 +~;
#X obj 164 533 mtof;
#X obj 383 318 expr~ $f2*($v1+1/2)*4;
#X connect 0 0 7 0;
#X connect 1 0 35 0;
#X connect 2 0 20 0;
#X connect 3 0 10 0;
#X connect 4 0 9 0;
#X connect 5 0 3 0;
#X connect 6 0 4 0;
#X connect 7 0 11 0;
#X connect 8 0 25 0;
#X connect 9 0 0 0;
#X connect 10 0 0 0;
#X connect 10 0 46 0;
#X connect 11 0 22 0;
#X connect 11 0 34 0;
#X connect 12 0 15 0;
#X connect 12 1 5 0;
#X connect 13 0 12 0;
#X connect 14 0 23 0;
#X connect 15 0 6 0;
#X connect 15 0 42 0;
#X connect 16 0 31 2;
#X connect 17 0 26 0;
#X connect 18 0 50 0;
#X connect 20 0 21 0;
#X connect 21 0 4 1;
#X connect 21 0 19 0;
#X connect 22 0 18 1;
#X connect 23 0 31 1;
#X connect 24 0 38 0;
#X connect 25 0 24 0;
#X connect 26 0 25 1;
#X connect 27 0 32 0;
#X connect 28 0 30 0;
#X connect 29 0 27 0;
#X connect 30 0 29 0;
#X connect 31 0 8 0;
#X connect 32 0 34 1;
#X connect 33 0 32 1;
#X connect 34 0 51 0;
#X connect 35 0 3 1;
#X connect 35 0 15 1;
#X connect 36 0 49 0;
#X connect 37 0 53 1;
#X connect 38 0 18 0;
#X connect 39 0 52 0;
#X connect 40 0 44 0;
#X connect 41 0 43 0;
#X connect 42 0 41 0;
#X connect 43 0 46 0;
#X connect 44 0 45 0;
#X connect 45 0 41 1;
#X connect 46 0 47 0;
#X connect 47 0 48 0;
#X connect 48 0 49 1;
#X connect 49 0 53 0;
#X connect 51 0 31 0;
#X connect 52 0 38 1;
#X connect 53 0 51 1;
#X restore 6 155 pd wonkyPerc;
#X obj 214 7 HLG_parameter \$1 \$1 attack 0;
#X obj 214 25 HLG_parameter \$1 \$1 base_decay 1;
#X obj 214 46 HLG_parameter \$1 \$1 sweep 2;
#X obj 214 66 HLG_parameter \$1 \$1 base 3;
#X obj 214 86 HLG_parameter \$1 \$1 dist 4;
#X obj 214 126 HLG_parameter \$1 \$1 FM_amt 6;
#X obj 214 106 HLG_parameter \$1 \$1 FM_freq 5;
#X obj 214 146 HLG_parameter \$1 \$1 noise_decay 7;
#X obj 214 166 HLG_parameter \$1 \$1 noise 8;
#X obj 214 186 HLG_parameter \$1 \$1 hipass 9;
#X coords 0 -1 1 1 200 135 1 0 0;
