#N canvas 499 162 792 599 10;
#X obj 168 469 text set parameters_\$1;
#X obj 168 449 list split 2;
#X obj 238 119 list split 1;
#X obj 238 98 text get parameters_\$1;
#X obj 238 56 r updated_\$1;
#X obj 168 408 list prepend \$3_\$2;
#X obj 168 429 list append \$4;
#X obj 238 77 float \$4;
#X obj 168 366 r save_value_\$1 \$4;
#X obj 168 387 value \$3_\$2;
#X text 126 55 updates gui values;
#X text 138 67 upon preset load;
#X text 150 79 or file update;
#X text 50 365 saves current value;
#X text 56 377 in current presest;
#X obj 502 466 s \$3_\$2;
#X obj 502 443 route \$3_\$2;
#X obj 397 267 list prepend send \$3_set_\$2;
#X obj 397 290 list trim;
#X obj 305 179 < 1;
#X obj 272 244 spigot;
#X obj 272 267 s \$3_set_\$2;
#X obj 397 244 spigot;
#X obj 430 161 value \$1_guiselect;
#X text 444 204 update is sent either to;
#X text 474 216 internal or net-gui;
#X text 450 228 if net-gui is connected;
#X obj 225 183 del 10;
#X obj 225 205 float;
#X obj 272 143 t f b, f 9;
#X text 41 194 not sure if delay was necesary;
#X obj 397 313 s \$1_netgui_return;
#X obj 461 488 print \$3_\$2_value;
#X obj 502 420 r \$1_netParameters;
#X text 415 390 send netParameter (from HLG_netReceive) into patch
;
#X connect 1 0 0 0;
#X connect 1 1 0 1;
#X connect 2 1 29 0;
#X connect 3 0 2 0;
#X connect 4 0 7 0;
#X connect 5 0 6 0;
#X connect 6 0 1 0;
#X connect 7 0 3 0;
#X connect 8 0 9 0;
#X connect 9 0 5 0;
#X connect 16 0 15 0;
#X connect 16 0 32 0;
#X connect 17 0 18 0;
#X connect 18 0 31 0;
#X connect 19 0 20 1;
#X connect 20 0 21 0;
#X connect 22 0 17 0;
#X connect 23 0 19 0;
#X connect 23 0 22 1;
#X connect 27 0 28 0;
#X connect 29 0 22 0;
#X connect 29 0 20 0;
#X connect 29 1 23 0;
#X connect 33 0 16 0;
