#N canvas 832 399 450 300 10;
#X obj 86 148 text set parameters_\$1;
#X obj 86 128 list split 2;
#X obj 258 129 list split 1;
#X obj 258 108 text get parameters_\$1;
#X obj 258 66 r updated_\$1;
#X obj 86 87 list prepend \$3_\$2;
#X obj 86 108 list append \$4;
#X obj 258 87 float \$4;
#X obj 273 225 s \$3_set_\$2;
#X obj 273 204 float;
#X obj 273 161 t b f;
#X obj 273 182 del 10;
#X obj 86 45 r save_value_\$1 \$4;
#X obj 86 66 value \$3_\$2;
#X connect 1 0 0 0;
#X connect 1 1 0 1;
#X connect 2 1 10 0;
#X connect 3 0 2 0;
#X connect 4 0 7 0;
#X connect 5 0 6 0;
#X connect 6 0 1 0;
#X connect 7 0 3 0;
#X connect 9 0 8 0;
#X connect 10 0 11 0;
#X connect 10 1 9 1;
#X connect 11 0 9 0;
#X connect 12 0 13 0;
#X connect 13 0 5 0;
