#N canvas 620 307 820 526 10;
#X obj 244 130 bng 15 250 50 0 empty reset_\$1_\$2 empty 17 7 0 10
-258113 -262144 -1;
#X obj 187 130 bng 15 250 50 0 empty clock_\$1_\$2 empty 17 7 0 10
-4160 -262144 -1;
#X obj 187 213 pack f f;
#X msg 187 234 \$1 \$2 1;
#X obj 187 255 unpack f f f;
#N canvas 989 72 450 394 lengths 0;
#X obj 21 15 inlet;
#X obj 21 270 outlet;
#X obj 73 270 outlet;
#X floatatom 21 92 5 0 127 0 - - -;
#X obj 21 182 list prepend;
#X msg 48 160 values;
#X msg 130 160 lines;
#X obj 103 112 t b b;
#X obj 21 112 t f b;
#X obj 21 203 list trim;
#X obj 21 224 route lines values;
#X floatatom 21 245 5 0 0 0 - - -;
#X floatatom 73 245 5 0 0 0 - - -;
#X obj 21 69 t f b;
#X obj 21 135 text size seq_\$2;
#X connect 0 0 13 0;
#X connect 3 0 8 0;
#X connect 4 0 9 0;
#X connect 5 0 4 1;
#X connect 6 0 4 1;
#X connect 7 0 14 0;
#X connect 7 1 6 0;
#X connect 8 0 14 0;
#X connect 8 1 5 0;
#X connect 9 0 10 0;
#X connect 10 0 11 0;
#X connect 10 1 12 0;
#X connect 11 0 1 0;
#X connect 12 0 2 0;
#X connect 13 0 3 0;
#X connect 13 1 7 0;
#X connect 14 0 4 0;
#X restore 355 92 pd lengths;
#X floatatom 187 192 5 0 0 0 - - -;
#X obj 486 351 unpack f f f;
#X msg 486 329 \$1 0 1;
#X msg 316 178 set \$1;
#X floatatom 486 256 5 0 127 1 send send_#1_#2 -;
#X obj 187 387 send;
#N canvas 52 239 450 528 counter 0;
#X obj 33 237 bng 15 250 50 0 empty empty empty 17 7 0 10 -262144 -1
-1;
#X msg 47 261 1;
#X obj 95 354 +;
#X msg 47 380 set \$1;
#X obj 95 380 select;
#X msg 110 143 1 \$1 1;
#X obj 110 98 bng 15 250 50 0 empty empty empty 17 7 0 10 -262144 -1
-1;
#X obj 240 98 bng 15 250 50 0 empty empty empty 17 7 0 10 -262144 -1
-1;
#X obj 110 199 unpack f f f;
#X msg 152 247 set \$1;
#X obj 152 225 float;
#X msg 240 164 -1 0 \$1;
#X obj 240 143 - 1;
#X obj 33 23 inlet;
#X obj 70 23 inlet;
#X obj 68 333 t f f;
#X obj 68 417 outlet;
#X obj 68 313 mod;
#X obj 110 44 float;
#X obj 110 23 r dir_\$1_\$2;
#X obj 189 24 r length_reset_\$1_\$2;
#X obj 83 292 r length_\$1_\$2;
#X obj 110 122 value length_\$1_\$2;
#X obj 240 122 value length_\$1_\$2;
#X obj 110 68 sel 1;
#X connect 0 0 1 0;
#X connect 1 0 17 0;
#X connect 2 0 3 0;
#X connect 2 0 4 0;
#X connect 3 0 1 0;
#X connect 4 0 10 0;
#X connect 5 0 8 0;
#X connect 6 0 22 0;
#X connect 7 0 23 0;
#X connect 8 0 2 1;
#X connect 8 1 4 1;
#X connect 8 2 10 1;
#X connect 9 0 1 0;
#X connect 10 0 9 0;
#X connect 11 0 8 0;
#X connect 12 0 11 0;
#X connect 13 0 0 0;
#X connect 14 0 10 0;
#X connect 15 0 16 0;
#X connect 15 1 2 0;
#X connect 17 0 15 0;
#X connect 18 0 24 0;
#X connect 19 0 18 0;
#X connect 20 0 18 0;
#X connect 21 0 17 1;
#X connect 22 0 5 0;
#X connect 23 0 12 0;
#X connect 24 0 6 0;
#X connect 24 1 7 0;
#X restore 187 149 pd counter;
#X obj 187 170 t b f;
#X floatatom 412 114 5 0 0 0 - - -;
#X obj 412 153 t b f;
#X obj 445 277 float;
#X obj 412 133 change;
#X obj 25 50 cnv 15 200 25 empty bg_\$1_\$2 empty 20 12 1 14 -35764
-262144 0;
#X obj 53 55 bng 15 250 50 0 reset_\$1_\$2 reset_set_\$1_\$2 empty
17 7 0 10 -258113 -262144 -262144;
#X obj 35 55 bng 15 250 50 0 clock_\$1_\$2 clock_set_\$1_\$2 empty
17 7 0 10 -262144 -1 -262144;
#X obj 71 55 hradio 15 1 0 2 dir_\$1_\$2 dir_set_\$1_\$2 empty 0 -8
0 10 -262144 -1 -1 1;
#X obj 106 55 nbx 3 15 0 127 0 0 send_\$1_\$2 send_set_\$1_\$2 empty
0 -8 1 10 -262144 -1 -1 0 256;
#X obj 412 173 send length_reset_\$1_\$2;
#X obj 439 193 send length_\$1_\$2;
#X obj 187 276 text get seq_\$2;
#X obj 486 373 text get seq_\$2;
#X obj 35 8 r clock_\$2;
#X obj 53 27 r reset_\$2;
#X obj 445 236 r seq_updated_\$2;
#X obj 486 310 mod 127;
#X obj 445 258 bng 15 250 50 0 empty empty empty 17 7 0 10 -262144
-1 -1;
#X obj 144 55 nbx 3 15 0 127 0 0 line_\$1_\$2 line_set_\$1_\$2 empty
0 -8 1 10 -262144 -1 -1 0 256;
#X obj 182 55 nbx 3 15 -63 64 0 0 offset_\$1_\$2 offset_set_\$1_\$2
empty 0 -8 1 10 -262144 -1 -262144 0 256;
#X obj 25 75 cnv 15 115 15 empty label_\$1_\$2 pitch_set_WV1 5 7 1
10 -233017 -66577 0;
#X obj 486 418 list prepend label;
#X obj 486 459 s label_\$1_\$2;
#X obj 486 439 list trim;
#X obj 316 133 mod 127;
#X floatatom 316 154 5 0 0 0 - - -;
#X obj 140 75 cnv 15 85 15 empty linelabel_\$1_\$2 line_0 5 7 1 10
-233017 -66577 0;
#X obj 275 92 float;
#X obj 275 51 r seq_updated_\$2;
#X obj 275 73 bng 15 250 50 0 empty empty empty 17 7 0 10 -262144 -1
-1;
#X floatatom 316 71 5 0 127 1 line line_#1_#2 -;
#X obj 316 459 s linelabel_\$1_\$2;
#X obj 316 417 list prepend label;
#X obj 316 438 list trim;
#X obj 187 317 + 0;
#X floatatom 202 297 5 0 0 0 offset offset_#1_#2 -;
#X msg 316 396 line_\$1;
#X obj 187 361 clip -127 127;
#X connect 0 0 12 1;
#X connect 1 0 12 0;
#X connect 2 0 3 0;
#X connect 3 0 4 0;
#X connect 4 0 25 0;
#X connect 4 1 25 1;
#X connect 4 2 25 2;
#X connect 5 0 30 1;
#X connect 5 0 38 1;
#X connect 5 1 14 0;
#X connect 6 0 2 0;
#X connect 7 0 26 0;
#X connect 7 1 26 1;
#X connect 7 2 26 2;
#X connect 8 0 7 0;
#X connect 9 0 6 0;
#X connect 10 0 16 1;
#X connect 10 0 30 0;
#X connect 12 0 13 0;
#X connect 13 0 6 0;
#X connect 13 1 2 1;
#X connect 14 0 17 0;
#X connect 15 0 23 0;
#X connect 15 1 24 0;
#X connect 16 0 30 0;
#X connect 17 0 15 0;
#X connect 25 0 48 0;
#X connect 26 0 11 1;
#X connect 26 0 35 0;
#X connect 27 0 20 0;
#X connect 28 0 19 0;
#X connect 29 0 31 0;
#X connect 30 0 8 0;
#X connect 31 0 16 0;
#X connect 35 0 37 0;
#X connect 37 0 36 0;
#X connect 38 0 39 0;
#X connect 38 0 5 0;
#X connect 38 0 50 0;
#X connect 39 0 9 0;
#X connect 41 0 38 0;
#X connect 42 0 43 0;
#X connect 43 0 41 0;
#X connect 44 0 38 0;
#X connect 44 0 41 1;
#X connect 46 0 47 0;
#X connect 47 0 45 0;
#X connect 48 0 51 0;
#X connect 49 0 48 1;
#X connect 50 0 46 0;
#X connect 51 0 11 0;
#X coords 0 -1 1 1 200 40 1 25 50;
