#N canvas 278 22 1162 852 10;
#X obj 0 15 cnv 15 200 175 empty empty empty 12 12 1 14 -204786 -66577
0;
#X floatatom 10 70 5 0 127 1 pitch pitch_set_#1 pitch_#1;
#X floatatom 10 103 5 0 127 1 FM_pitch FM_pitch_set_#1 FM_pitch_#1
;
#X floatatom 10 136 5 0 100 1 FM_amount FM_amount_set_#1 FM_amount_#1
;
#X floatatom 10 85 5 0 127 1 max_pitch max_pitch_set_#1 max_pitch_#1
;
#X floatatom 10 118 5 0 127 1 FM_max_pitch FM_max_pitch_set_#1 FM_max_pitch_#1
;
#X floatatom 10 151 5 0 1 1 FM_max_amount FM_max_amount_set_#1 FM_max_amount_#1
;
#X obj 10 170 bng 15 250 50 0 random_trig_\$1 random_trig_set_\$1 random_trig
17 7 0 10 -257985 -1 -1;
#X obj 0 190 cnv 15 200 15 empty empty out_\$1 5 8 1 10 -233017 -66577
0;
#N canvas 1058 353 257 300 initialize 0;
#X obj 59 26 loadbang;
#X obj 59 68 send VCO_pitch_set_\$1;
#X msg 59 47 32;
#X obj 59 108 send FM_pitch_set_\$1;
#X obj 59 148 send FM_amount_set_\$1;
#X msg 59 129 0.2;
#X msg 59 89 64;
#X connect 0 0 2 0;
#X connect 0 0 6 0;
#X connect 0 0 5 0;
#X connect 2 0 1 0;
#X connect 5 0 4 0;
#X connect 6 0 3 0;
#X restore 126 320 pd initialize;
#X obj 0 0 cnv 15 200 15 empty empty FM_\$1 5 8 1 10 -233017 -66577
0;
#N canvas 539 154 901 576 wonkyVCO 0;
#X obj 56 457 osc~;
#X obj 71 265 osc~;
#X obj 56 348 *~;
#X obj 56 234 mtof;
#X floatatom 86 159 5 0 0 1 pitch pitch_#1 -;
#X floatatom 89 67 5 0 127 1 max_pitch max_pitch_#1 -;
#X floatatom 71 114 5 0 127 1 rnd_pitch rnd_pitch_#1 -;
#X obj 56 193 +;
#X obj 86 179 t b f;
#X obj 56 87 random;
#X obj 56 11 bng 15 250 50 0 empty random_trig_\$1 random_trig 17 7
0 10 -257985 -1 -1;
#X floatatom 56 214 5 0 0 0 - - -;
#X obj 71 306 *~ 1;
#X obj 71 327 +~ 1;
#X floatatom 352 176 5 0 127 1 FM_pitch FM_pitch_#1 -;
#X obj 322 251 mtof;
#X floatatom 355 84 5 0 127 1 FM_max_pitch FM_max_pitch_#1 -;
#X obj 322 210 +;
#X obj 352 196 t b f;
#X obj 322 104 random;
#X floatatom 322 231 5 0 0 0 - - -;
#X floatatom 337 130 5 0 127 1 rnd_FM_pitch rnd_FM_pitch_#1 -;
#X floatatom 639 96 5 0 127 1 FM_max_amount FM_max_amount_#1 -;
#X obj 606 272 +;
#X obj 650 258 t b f;
#X obj 606 146 random;
#X floatatom 606 293 5 0 0 0 - - -;
#X floatatom 621 172 5 0 127 1 rnd_FM_amount rnd_FM_amount_#1 -;
#X floatatom 650 218 5 0 1 1 FM_amount FM_amount_#1 -;
#X obj 56 478 *~ 0.5;
#X obj 56 499 outlet~;
#X obj 56 153 *;
#X obj 322 180 *;
#X obj 606 212 *;
#X obj 56 375 expr~ $v1*($v2+1);
#X obj 155 350 r~ FM_\$1;
#X obj 71 133 / 127;
#X obj 337 150 / 127;
#X obj 621 192 / 127;
#X obj 606 233 / 127;
#X obj 56 31 t b b b;
#X obj 650 238 / 32;
#X obj 639 116 / 32;
#X connect 0 0 29 0;
#X connect 1 0 12 0;
#X connect 2 0 34 0;
#X connect 3 0 2 0;
#X connect 4 0 8 0;
#X connect 5 0 9 1;
#X connect 6 0 36 0;
#X connect 7 0 11 0;
#X connect 8 0 7 0;
#X connect 8 1 7 1;
#X connect 9 0 31 0;
#X connect 10 0 40 0;
#X connect 11 0 3 0;
#X connect 12 0 13 0;
#X connect 13 0 2 1;
#X connect 14 0 18 0;
#X connect 15 0 1 0;
#X connect 16 0 19 1;
#X connect 17 0 20 0;
#X connect 18 0 17 0;
#X connect 18 1 17 1;
#X connect 19 0 32 0;
#X connect 20 0 15 0;
#X connect 21 0 37 0;
#X connect 22 0 42 0;
#X connect 23 0 26 0;
#X connect 24 0 23 0;
#X connect 24 1 23 1;
#X connect 25 0 33 0;
#X connect 26 0 12 1;
#X connect 27 0 38 0;
#X connect 28 0 41 0;
#X connect 29 0 30 0;
#X connect 31 0 7 0;
#X connect 32 0 17 0;
#X connect 33 0 39 0;
#X connect 34 0 0 0;
#X connect 35 0 34 1;
#X connect 36 0 31 1;
#X connect 37 0 32 1;
#X connect 38 0 33 1;
#X connect 39 0 23 0;
#X connect 40 0 9 0;
#X connect 40 1 19 0;
#X connect 40 2 25 0;
#X connect 41 0 24 0;
#X connect 42 0 25 1;
#X restore 10 320 pd wonkyVCO;
#X obj 226 103 HLG_parameter \$1 \$1 pitch 0;
#X obj 226 123 HLG_parameter \$1 \$1 max_pitch 1;
#X obj 226 163 HLG_parameter \$1 \$1 FM_pitch 3;
#X obj 226 183 HLG_parameter \$1 \$1 FM_max_pitch 4;
#X obj 226 223 HLG_parameter \$1 \$1 FM_amount 6;
#X obj 225 242 HLG_parameter \$1 \$1 FM_max_amount 7;
#X obj 10 341 send~ out_\$1;
#X obj 5 20 HLG_presetControl \$1 wonkyVCO;
#X obj 130 70 tgl 15 0 rnd_pitch_\$1 rnd_pitch_set_\$1 rnd_on 17 7
0 10 -257985 -1 -1 0 127;
#X obj 130 103 tgl 15 0 rnd_FM_pitch_\$1 rnd_FM_pitch_set_\$1 rnd_on
17 7 0 10 -257985 -1 -1 0 127;
#X obj 130 135 tgl 15 0 rnd_FM_amount_\$1 rnd_FM_amount_set_\$1 rnd_on
17 7 0 10 -257985 -1 -1 0 127;
#X obj 226 143 HLG_parameter \$1 \$1 rnd_pitch 2;
#X obj 226 203 HLG_parameter \$1 \$1 rnd_FM_pitch 5;
#X obj 226 263 HLG_parameter \$1 \$1 rnd_FM_amount 8;
#X connect 11 0 18 0;
#X coords 0 -1 1 1 200 205 1 0 0;
