#N canvas 512 200 1070 752 10;
#X obj 205 618 text set parameters_\$1;
#X obj 205 598 list split 2;
#X obj 650 134 list split 1;
#X obj 650 113 text get parameters_\$1;
#X obj 650 71 r updated_\$1;
#X obj 205 557 list prepend \$3_\$2;
#X obj 205 578 list append \$4;
#X obj 650 92 float \$4;
#X obj 205 515 r save_value_\$1 \$4;
#X obj 205 536 value \$3_\$2;
#X text 538 70 updates gui values;
#X text 550 82 upon preset load;
#X text 562 94 or file update;
#X text 87 514 saves current value;
#X text 93 526 in current presest;
#X obj 126 166 netreceive;
#X symbolatom 126 98 10 0 0 0 gui-client - -;
#X floatatom 242 103 6 1 10000 0 port - -;
#X msg 126 143 listen \$2 \$1;
#X obj 126 19 loadbang;
#X obj 126 42 t b b;
#X text 20 143 listens for input;
#X obj 156 242 s \$3_\$2;
#X obj 269 214 tgl 15 0 empty empty empty 17 7 0 10 -262144 -1 -1 0
1;
#X obj 156 219 route \$3_\$2;
#X obj 126 120 pack s f;
#X msg 126 66 set pictrl1 \, bang;
#X text 300 216 GUI is connected;
#X text 288 204 ON if at least one;
#X obj 809 282 list prepend send \$3_set_\$2;
#X obj 809 305 list trim;
#X obj 717 194 < 1;
#X obj 684 259 spigot;
#X obj 684 282 s \$3_set_\$2;
#X obj 809 259 spigot;
#X obj 269 234 value \$1_guiselect;
#X obj 842 176 value \$1_guiselect;
#X text 856 219 update is sent either to;
#X text 886 231 internal or net-gui;
#X text 862 243 if net-gui is connected;
#X obj 637 198 del 10;
#X obj 637 220 float;
#X obj 684 158 t f b, f 9;
#X text 453 209 not sure if delay was necesary;
#X obj 809 328 s \$1_netgui_return;
#X obj 239 148 r \$1_netgui_return;
#X text 50 155 from net-gui;
#X text 24 61 net-gui setup;
#X msg 242 60 3005;
#X obj 115 264 print \$3_\$2_value;
#X obj 135 386 list;
#X obj 135 363 sel 1;
#X msg 156 328 detected HLG_netGUI from \$1 on port \$2;
#X obj 135 432 print \$3_\$2_gui;
#X obj 202 381 list;
#X msg 223 353 disconnected HLG_netGUI from \$1 on port \$2;
#X obj 135 409 list trim;
#X obj 202 409 list trim;
#X connect 1 0 0 0;
#X connect 1 1 0 1;
#X connect 2 1 42 0;
#X connect 3 0 2 0;
#X connect 4 0 7 0;
#X connect 5 0 6 0;
#X connect 6 0 1 0;
#X connect 7 0 3 0;
#X connect 8 0 9 0;
#X connect 9 0 5 0;
#X connect 15 0 24 0;
#X connect 15 1 23 0;
#X connect 16 0 25 0;
#X connect 17 0 25 1;
#X connect 18 0 15 0;
#X connect 19 0 20 0;
#X connect 20 0 26 0;
#X connect 20 1 48 0;
#X connect 23 0 35 0;
#X connect 24 0 22 0;
#X connect 24 0 49 0;
#X connect 25 0 18 0;
#X connect 25 0 52 0;
#X connect 25 0 55 0;
#X connect 26 0 16 0;
#X connect 29 0 30 0;
#X connect 30 0 44 0;
#X connect 31 0 32 1;
#X connect 32 0 33 0;
#X connect 34 0 29 0;
#X connect 36 0 31 0;
#X connect 36 0 34 1;
#X connect 40 0 41 0;
#X connect 42 0 34 0;
#X connect 42 0 32 0;
#X connect 42 1 36 0;
#X connect 45 0 15 0;
#X connect 48 0 17 0;
#X connect 50 0 56 0;
#X connect 51 0 50 0;
#X connect 51 1 54 0;
#X connect 52 0 50 1;
#X connect 54 0 57 0;
#X connect 55 0 54 1;
#X connect 56 0 53 0;
#X connect 57 0 53 0;
